<?xml version="1.0" encoding="utf-8"?>
<!-- Generator: Adobe Illustrator 22.0.0, SVG Export Plug-In . SVG Version: 6.00 Build 0)  -->
<svg version="1.1" id="Layer_1" xmlns="http://www.w3.org/2000/svg" xmlns:xlink="http://www.w3.org/1999/xlink" x="0px" y="0px"
	 viewBox="0 0 600 600" style="enable-background:new 0 0 600 600;" xml:space="preserve">
<style type="text/css">
	.st0{fill:#7D7D7D;}
	.st1{fill:#2C2CA0;}
	.st2{fill:#FFFFFF;}
</style>
<g>
	<g>
		<path class="st0" d="M64.6,248h508.5c14.3,0,24.2,8.6,22.1,19.2L573,381.4c-2.1,10.6-15.3,19.2-29.6,19.2H34.8
			c-14.3,0-24.2-8.6-22.1-19.2L35,267.2C37.1,256.6,50.3,248,64.6,248z"/>
		<g>
			<path class="st0" d="M63.9,294.5c-2.2,0-3.9-0.6-4.9-1.7l-0.1-0.1l-0.1-0.1c-0.9-1.3-1.1-3-0.7-5.2L73,211.3
				c0.4-2.1,1.2-3.6,2.4-4.6c1.3-1.1,3-1.6,5.1-1.6H120c10.6,0,17.9,2.2,22.4,6.6c4.6,4.5,6.1,11.4,4.3,20.3l-7.2,36.5
				c-1.7,8.8-5.6,15.4-11.7,19.7c-5.9,4.2-14,6.3-24.3,6.3H63.9z M104.6,267.3c1.2,0,2.1-0.3,2.7-0.8c0.7-0.6,1.2-1.6,1.5-3
				l5.6-28.5c0.3-1.4,0.1-2,0-2.1l-0.1-0.1l-0.1-0.1c-0.1-0.1-0.5-0.4-1.8-0.4h-11.9l-6.8,34.9L104.6,267.3L104.6,267.3z"/>
			<path class="st0" d="M120,207.4c9.8,0,16.7,2,20.6,5.9c4,3.9,5.2,9.9,3.6,18.1l-7.2,36.7c-1.6,8.1-5.2,14.2-10.7,18.1
				c-5.5,3.9-13.1,5.9-22.9,5.9H63.9c-1.5,0-2.5-0.3-3.1-0.9c-0.5-0.7-0.6-1.8-0.3-3.3l14.9-76.1c0.3-1.5,0.8-2.5,1.6-3.2
				c0.8-0.7,2-1.1,3.5-1.1H120 M90.6,269.8h14c1.9,0,3.3-0.5,4.4-1.4s1.9-2.4,2.3-4.3l5.6-28.6c0.4-2,0.2-3.4-0.6-4.2
				c-0.7-0.9-2-1.4-3.8-1.4h-14L90.6,269.8 M120,202.4H80.4c-2.7,0-5,0.8-6.7,2.2c-1.6,1.4-2.7,3.4-3.2,6l-14.9,76.2
				c-0.6,2.9-0.2,5.2,1.1,7.1l0.2,0.3l0.2,0.3c1.6,1.7,3.8,2.5,6.8,2.5h39.6c10.8,0,19.5-2.3,25.8-6.8c6.6-4.7,10.9-11.8,12.7-21.2
				l7.2-36.6c1.9-9.9,0.2-17.5-5.1-22.6C139.1,204.8,131.2,202.4,120,202.4L120,202.4z M102.6,234.9h9.3l-5.5,28.2
				c-0.2,0.9-0.5,1.4-0.6,1.5l-0.1,0.1l-0.1,0.1l0,0c0,0-0.3,0.1-1.1,0.1h-7.9L102.6,234.9L102.6,234.9z"/>
		</g>
		<g>
			<path class="st0" d="M199,294.5c-2.2,0-3.9-0.6-4.9-1.7l-0.1-0.1l-0.1-0.1c-0.9-1.3-1.1-3-0.7-5.2l3.5-18
				c0.3-1.4,0.1-1.9,0.1-1.9l-0.1-0.1c-0.1,0-0.4-0.1-1-0.1h-14.4l-4.1,21c-0.4,2.1-1.3,3.7-2.6,4.7c-1.2,1-2.9,1.5-5,1.5h-18.1
				c-2.2,0-3.9-0.6-4.9-1.7l-0.1-0.1l-0.1-0.1c-0.9-1.3-1.1-3-0.7-5.2l14.9-76.1c0.4-2.1,1.2-3.6,2.4-4.6c1.3-1.1,3-1.6,5.1-1.6
				h39.1c9.7,0,16,2.2,19.1,6.6c3,4.1,4,9.5,2.7,16l-1.1,5.4c-0.7,3.6-1.9,6.7-3.5,9.3c-0.6,1-1.3,1.9-2.2,2.7
				c2.2,1.1,3.9,2.6,5.3,4.7c2.5,3.5,3.2,8.1,2.1,13.7l-4.9,24.9c-0.4,2.1-1.3,3.6-2.5,4.7c-1.2,1-2.9,1.5-5,1.5H199V294.5z
				 M192.1,241.1c1.2,0,2.1-0.2,2.5-0.7c0.6-0.7,1-1.7,1.2-2.8l0.8-4c0.2-1,0.2-1.8-0.1-2.3l0,0c-0.1-0.1-0.5-0.2-1.5-0.2h-6.8
				l-2,10H192.1z"/>
			<path class="st0" d="M207.1,207.4c8.8,0,14.4,1.8,17,5.5c2.7,3.6,3.4,8.3,2.3,14.1l-1.1,5.4c-0.6,3.3-1.7,6.1-3.2,8.5
				c-1.4,2.3-3.4,3.9-6,4.9c4.1,0.5,7.2,2.2,9.2,5.2c2.1,3,2.6,6.9,1.7,11.9l-4.9,24.9c-0.3,1.5-0.9,2.6-1.7,3.3
				c-0.8,0.6-1.9,0.9-3.4,0.9h-18c-1.5,0-2.5-0.3-3.1-0.9c-0.5-0.7-0.6-1.8-0.3-3.3l3.5-18c0.3-1.7,0.2-3-0.3-3.8
				c-0.5-0.9-1.5-1.3-3.2-1.3h-16.4l-4.5,23c-0.3,1.5-0.9,2.6-1.7,3.3c-0.8,0.6-1.9,0.9-3.4,0.9h-18.1c-1.5,0-2.5-0.3-3.1-0.9
				c-0.5-0.7-0.6-1.8-0.3-3.3l14.9-76c0.3-1.5,0.8-2.5,1.6-3.2s2-1.1,3.5-1.1H207.1 M183.3,243.6h8.8c2,0,3.5-0.5,4.4-1.5
				c0.9-1.1,1.5-2.4,1.8-4l0.8-4c0.3-1.6,0.2-2.9-0.3-3.9c-0.5-1.1-1.8-1.6-3.8-1.6h-8.8L183.3,243.6 M207.1,202.4H168
				c-2.7,0-4.9,0.7-6.7,2.2c-1.6,1.4-2.7,3.4-3.3,6.1l-14.9,76.1c-0.6,2.9-0.2,5.3,1.1,7.1l0.2,0.3l0.2,0.3c1.6,1.7,3.8,2.5,6.8,2.5
				h18.1c2.7,0,4.9-0.7,6.6-2.1c1.7-1.5,2.9-3.5,3.4-6.2l3.7-19H194l-3.3,17.1c-0.6,2.8-0.2,5.2,1.1,7.1l0.2,0.3l0.2,0.3
				c1.6,1.7,3.8,2.5,6.8,2.5h18.2c2.7,0,4.9-0.7,6.6-2.1c1.7-1.5,2.9-3.5,3.4-6.2l4.9-24.9c1.2-6.3,0.4-11.5-2.5-15.7
				c-1-1.5-2.2-2.8-3.6-3.8c0.2-0.3,0.4-0.5,0.5-0.8c1.8-2.9,3.1-6.3,3.8-10.1l1.1-5.4c1.4-7.2,0.3-13.2-3.1-18
				C224.6,204.9,217.7,202.4,207.1,202.4L207.1,202.4z M190.3,233.6h3.8l-0.7,3.6c-0.1,0.6-0.3,1-0.5,1.4c-0.2,0-0.4,0.1-0.8,0.1
				h-2.7L190.3,233.6L190.3,233.6z"/>
		</g>
		<g>
			<path class="st0" d="M283.8,294.5c-2.3,0-3.9-0.5-5.1-1.6l-0.1-0.1l-0.1-0.1c-1.1-1.3-1.4-3.1-0.9-5.3l2.6-13.5h-15.7l-2.8,14.4
				c-0.4,2.1-1.3,3.7-2.5,4.7s-2.9,1.5-5,1.5H237c-2.2,0-3.9-0.6-4.9-1.7l-0.1-0.1l-0.1-0.1c-0.9-1.3-1.1-3-0.7-5.2l6.1-31
				c0.5-2.5,1.4-5.4,2.8-8.6c1.4-3.2,3.4-6.8,5.7-11l15.4-26.7c0.9-1.7,2.1-3,3.6-3.8c1.6-0.9,3.3-1.3,5.3-1.3h31.6
				c2,0,3.7,0.5,4.9,1.4c1,0.7,2.3,2.1,2.7,4.6l5,26.6c0.8,4.2,1.3,7.9,1.4,11.1c0.2,3.2,0,6.1-0.5,8.7l-6,31
				c-0.4,2.1-1.3,3.7-2.6,4.7c-1.2,1-2.9,1.5-5,1.5h-17.8V294.5z M283.5,247.5l-1.7-14.9h-2.2c-0.1,0.1-0.3,0.3-0.6,0.7l-7.1,14.2
				H283.5z"/>
			<path class="st0" d="M301.6,207.4c1.5,0,2.6,0.3,3.5,0.9c0.9,0.6,1.4,1.6,1.7,2.9l5,26.7c0.8,4.1,1.2,7.6,1.3,10.7
				c0.2,3.1,0.1,5.8-0.4,8.1l-6.1,31c-0.3,1.5-0.9,2.6-1.7,3.3c-0.8,0.6-1.9,0.9-3.4,0.9h-17.7c-1.6,0-2.7-0.3-3.3-0.9
				c-0.6-0.7-0.7-1.8-0.4-3.3l3.2-16.4h-20.8l-3.2,16.4c-0.3,1.5-0.9,2.6-1.7,3.3c-0.7,0.6-1.9,0.9-3.4,0.9H237
				c-1.5,0-2.5-0.3-3.1-0.9c-0.5-0.7-0.6-1.8-0.3-3.3l6.1-31c0.5-2.3,1.3-5.1,2.6-8.1c1.4-3.1,3.3-6.6,5.6-10.7l15.4-26.7
				c0.7-1.3,1.6-2.3,2.7-2.9c1.1-0.6,2.5-0.9,4.1-0.9L301.6,207.4 M267.8,250h18.4l-2-17.9c-0.2-0.7-0.4-1.2-0.8-1.5
				c-0.3-0.3-0.6-0.5-1.1-0.5h-2.9c-0.5,0-0.9,0.2-1.4,0.5c-0.4,0.3-0.8,0.8-1.2,1.5L267.8,250 M301.6,202.4H270
				c-2.4,0-4.6,0.5-6.5,1.6h-0.1h-0.1c-1.8,1.1-3.3,2.7-4.5,4.8l-15.3,26.7c-2.4,4.2-4.4,8-5.8,11.1l0,0l0,0
				c-1.4,3.4-2.4,6.4-2.9,9.1l-6.1,31c-0.6,2.8-0.2,5.2,1.1,7.1l0.2,0.3l0.2,0.3c1.6,1.7,3.8,2.5,6.8,2.5h17.3
				c2.7,0,4.9-0.7,6.6-2.1c1.7-1.4,2.9-3.5,3.4-6.2l2.4-12.4h10.6l-2,10.5c-0.6,3-0.1,5.5,1.4,7.4l0.2,0.3l0.2,0.2
				c1.6,1.5,3.9,2.3,6.8,2.3h17.7c2.7,0,4.9-0.7,6.6-2.1c1.7-1.5,2.9-3.5,3.4-6.2l6.1-31c0.5-2.7,0.7-5.8,0.5-9.3
				c-0.1-3.3-0.6-7.1-1.4-11.4l-5-26.6c-0.5-3.3-2.2-5.1-3.6-6.1C306.3,203.1,304.2,202.4,301.6,202.4L301.6,202.4z M276,245
				l3.8-7.6l0.9,7.6H276L276,245z"/>
		</g>
		<g>
			<path class="st0" d="M347.9,294.5c-10.6,0-17.9-2.2-22.5-6.6c-4.6-4.5-6-11.4-4.2-20.4l7.2-36.7c1.7-8.8,5.6-15.4,11.6-19.6
				s14.2-6.3,24.5-6.3h29.4c2.3,0,3.9,0.7,4.9,2c1.1,1.2,1.4,3,0.9,5.2l-2.8,14.2c-0.4,2.1-1.3,3.7-2.6,4.7c-1.2,1-2.9,1.5-5,1.5
				h-24.4c-1.9,0-3.3,0.3-4.2,1c-0.9,0.6-1.4,1.5-1.6,2.8l-5.5,28.1c-0.3,1.4-0.1,2.1,0,2.4c0.3,0.3,1,0.4,1.8,0.4h9.3l3.2-16.3
				c0.4-2.1,1.2-3.6,2.4-4.6c1.3-1.1,3-1.6,5.1-1.6h18.2c2.3,0,3.9,0.7,4.9,2c1.1,1.2,1.4,3,0.9,5.2l-7.1,36.3
				c-0.4,2.1-1.3,3.7-2.5,4.7s-2.9,1.5-5,1.5L347.9,294.5L347.9,294.5z"/>
			<path class="st0" d="M393.8,207.4c1.5,0,2.5,0.4,3,1.1c0.6,0.6,0.7,1.7,0.4,3.2l-2.8,14.2c-0.3,1.5-0.9,2.6-1.7,3.3
				c-0.8,0.6-1.9,0.9-3.4,0.9h-24.4c-2.4,0-4.3,0.5-5.7,1.5c-1.4,0.9-2.2,2.4-2.6,4.3l-5.5,28.1c-0.4,2-0.2,3.4,0.4,4.3
				c0.8,0.9,2,1.4,3.8,1.4h11.4l3.6-18.3c0.3-1.5,0.8-2.5,1.6-3.2c0.8-0.7,2-1.1,3.5-1.1h18.2c1.5,0,2.5,0.4,3,1.1
				c0.6,0.6,0.7,1.7,0.4,3.2l-7.1,36.3c-0.3,1.5-0.9,2.6-1.7,3.3c-0.8,0.6-1.9,0.9-3.4,0.9h-37c-9.8,0-16.7-2-20.7-5.9
				c-3.9-3.9-5.1-9.9-3.5-18.1l7.2-36.7c1.6-8.1,5.1-14.2,10.6-18.1s13.2-5.9,23-5.9h29.4 M393.8,202.4h-29.4
				c-10.8,0-19.5,2.3-25.9,6.8c-6.5,4.7-10.8,11.8-12.6,21.2l-7.2,36.7c-1.9,9.8-0.3,17.4,4.9,22.6l0,0l0,0c5,4.9,12.9,7.3,24.2,7.3
				h37c2.7,0,4.9-0.7,6.6-2.1c1.7-1.5,2.9-3.5,3.4-6.2l7.2-36.2c0.7-3.6-0.3-5.9-1.4-7.3c-1.1-1.4-3.1-2.9-6.9-2.9h-18.2
				c-2.7,0-4.9,0.7-6.7,2.2c-1.6,1.4-2.7,3.4-3.3,6l-2.8,14.3h-6.6l5.4-27.9c0.1-0.6,0.3-1,0.5-1.2h0.1h0.1c0.2-0.2,0.9-0.5,2.7-0.5
				h24.4c2.7,0,4.9-0.7,6.6-2.1c1.7-1.4,2.9-3.5,3.4-6.2l2.8-14.2c0.7-3.6-0.3-5.9-1.4-7.3C399.6,204,397.5,202.4,393.8,202.4
				L393.8,202.4z"/>
		</g>
		<g>
			<path class="st0" d="M452.9,294.5c-2.3,0-3.9-0.5-5.1-1.6l-0.1-0.1l-0.1-0.1c-1-1.3-1.4-3.1-0.9-5.3l2.6-13.5h-15.7l-2.8,14.4
				c-0.4,2.1-1.3,3.7-2.6,4.7c-1.2,1-2.9,1.5-5,1.5h-17.3c-2.2,0-3.9-0.6-4.9-1.7l-0.1-0.1l-0.1-0.1c-0.9-1.3-1.1-3-0.7-5.2l6-31
				c0.5-2.5,1.4-5.4,2.8-8.6c1.4-3.2,3.4-6.8,5.7-11l15.4-26.7c0.9-1.7,2.1-3,3.6-3.8c1.6-0.9,3.3-1.3,5.3-1.3h31.6
				c2,0,3.7,0.5,4.9,1.4c1,0.7,2.3,2.1,2.7,4.6l5,26.6c0.8,4.2,1.3,7.9,1.4,11.1c0.2,3.2,0,6.1-0.5,8.7l-6,31
				c-0.4,2.1-1.3,3.6-2.5,4.7c-1.2,1-2.9,1.5-5,1.5h-17.6V294.5z M452.6,247.5l-1.7-14.9h-2.2c-0.1,0.1-0.3,0.3-0.6,0.7l-7.1,14.2
				H452.6z"/>
			<path class="st0" d="M470.7,207.4c1.5,0,2.6,0.3,3.5,0.9c0.9,0.6,1.4,1.6,1.7,2.9l5,26.7c0.8,4.1,1.2,7.6,1.3,10.7
				c0.2,3.1,0.1,5.8-0.4,8.1l-6.1,31c-0.3,1.5-0.9,2.6-1.7,3.3c-0.8,0.6-1.9,0.9-3.4,0.9h-17.7c-1.6,0-2.7-0.3-3.3-0.9
				c-0.6-0.7-0.7-1.8-0.4-3.3l3.2-16.4h-20.8l-3.2,16.4c-0.3,1.5-0.9,2.6-1.7,3.3c-0.8,0.6-1.9,0.9-3.4,0.9H406
				c-1.5,0-2.5-0.3-3.1-0.9c-0.5-0.7-0.6-1.8-0.3-3.3l6.1-31c0.5-2.3,1.3-5.1,2.6-8.1c1.4-3.1,3.3-6.6,5.6-10.7l15.4-26.7
				c0.7-1.3,1.6-2.3,2.7-2.9c1.1-0.6,2.5-0.9,4.1-0.9L470.7,207.4 M436.9,250h18.4l-2-17.9c-0.2-0.7-0.4-1.2-0.8-1.5
				c-0.3-0.3-0.6-0.5-1.1-0.5h-2.9c-0.5,0-0.9,0.2-1.4,0.5c-0.4,0.3-0.8,0.8-1.2,1.5L436.9,250 M470.7,202.4h-31.6
				c-2.4,0-4.6,0.5-6.5,1.6h-0.1h-0.1c-1.8,1.1-3.3,2.7-4.5,4.8l-15.3,26.7c-2.4,4.2-4.4,8-5.8,11.1l0,0l0,0
				c-1.5,3.4-2.4,6.4-2.9,9.1l-6,31c-0.6,2.8-0.2,5.2,1.1,7.1l0.2,0.3l0.2,0.3c1.6,1.7,3.8,2.5,6.8,2.5h17.3c2.7,0,4.9-0.7,6.6-2.1
				c1.7-1.5,2.9-3.5,3.4-6.2l2.4-12.4h10.6l-2,10.5c-0.7,3.7,0.4,6.1,1.4,7.4l0.2,0.3l0.2,0.2c1.6,1.5,3.9,2.3,6.8,2.3h17.7
				c2.7,0,4.9-0.7,6.6-2.1c1.7-1.5,2.9-3.5,3.4-6.2l6.1-31c0.5-2.7,0.7-5.9,0.5-9.3c-0.1-3.3-0.6-7.1-1.4-11.4l-5-26.6
				c-0.5-3.3-2.2-5.1-3.6-6.1C475.5,203.1,473.3,202.4,470.7,202.4L470.7,202.4z M445.1,245l3.8-7.6l0.9,7.6H445.1L445.1,245z"/>
		</g>
		<g>
			<path class="st0" d="M539.8,294.5c-2.2,0-3.9-0.6-4.9-1.7l-0.1-0.1l-0.1-0.1c-0.9-1.3-1.1-3-0.7-5.2l2.6-13.5l-11.5-18.2
				l-6.4,32.6c-0.4,2.1-1.3,3.7-2.6,4.7c-1.2,1-2.9,1.5-5,1.5h-17.6c-2.2,0-3.9-0.6-4.9-1.7l-0.1-0.1l-0.1-0.1
				c-0.9-1.3-1.1-3-0.7-5.2l14.9-76.1c0.4-2.1,1.2-3.6,2.4-4.6c1.3-1.1,3-1.6,5.1-1.6h12.2c1.9,0,3.5,0.3,4.8,1
				c1.3,0.6,2.6,1.7,3.6,3.3l14.3,21.1l3.7-19.1c0.4-2.1,1.2-3.6,2.4-4.6c1.3-1.1,3-1.6,5.1-1.6h17.6c2.3,0,3.9,0.7,4.9,2
				c1.1,1.2,1.4,3,0.9,5.2l-14.9,76.1c-0.4,2.1-1.3,3.7-2.6,4.7c-1.2,1-2.9,1.5-5,1.5h-17.3V294.5z"/>
			<path class="st0" d="M573.9,207.4c1.5,0,2.5,0.4,3,1.1c0.6,0.6,0.7,1.7,0.4,3.2l-14.9,76.1c-0.3,1.5-0.9,2.6-1.7,3.3
				c-0.8,0.6-1.9,0.9-3.4,0.9h-17.6c-1.5,0-2.5-0.3-3.1-0.9c-0.5-0.7-0.6-1.8-0.3-3.3l2.8-14.4l-15.3-24.3l-7.6,38.8
				c-0.3,1.5-0.9,2.6-1.7,3.3c-0.8,0.6-1.9,0.9-3.4,0.9h-17.6c-1.5,0-2.5-0.3-3.1-0.9c-0.5-0.7-0.6-1.8-0.3-3.3l14.9-76.1
				c0.3-1.5,0.8-2.5,1.6-3.2c0.8-0.7,2-1.1,3.5-1.1h12.2c1.5,0,2.7,0.2,3.6,0.7c1,0.5,1.9,1.3,2.7,2.5l17.7,26.1l4.9-25
				c0.3-1.5,0.8-2.5,1.6-3.2c0.8-0.7,2-1.1,3.5-1.1h17.6 M573.9,202.4h-17.6c-2.7,0-4.9,0.7-6.7,2.2c-1.6,1.4-2.7,3.4-3.3,6
				l-2.6,13.2l-11-16.1c-1.3-1.9-2.8-3.3-4.6-4.2c-1.6-0.8-3.5-1.2-5.8-1.2h-12.2c-2.7,0-4.9,0.7-6.7,2.2c-1.6,1.4-2.7,3.4-3.3,6
				l-14.9,76.1c-0.6,2.9-0.2,5.3,1.1,7.1l0.2,0.3l0.2,0.3c1.6,1.7,3.8,2.5,6.8,2.5h17.6c2.7,0,4.9-0.7,6.6-2.1
				c1.7-1.5,2.9-3.5,3.4-6.2l5.2-26.4l7.6,12l-2.4,12.5c-0.6,2.9-0.2,5.2,1.1,7.1l0.2,0.3l0.2,0.3c1.6,1.7,3.8,2.5,6.8,2.5h17.6
				c2.7,0,4.9-0.7,6.6-2.1c1.7-1.5,2.9-3.5,3.4-6.2l14.9-76.1c0.7-3.7-0.3-5.9-1.4-7.3C579.7,204,577.7,202.4,573.9,202.4
				L573.9,202.4z"/>
		</g>
		<path class="st0" d="M117.2,302.1h16.7c1.4,0,2.4,0.3,2.8,1c0.6,0.6,0.7,1.6,0.4,3l-8.5,43.6c-0.5,2.4-1,4.6-1.7,6.7
			c-0.5,2-1.6,4.4-3.1,7.2l-8.6,15.3c-0.6,1.1-1.3,2.1-2.3,2.9c-0.8,0.7-1.8,1.1-3,1.1H95.1c-1.2,0-2.2-0.3-3.1-0.8
			s-1.3-1.4-1.4-2.6L89,361.3c-0.1-0.8-0.3-1.2-0.6-1.5c-0.2-0.3-0.6-0.4-1-0.4h-1c-0.4,0-0.9,0.1-1.3,0.4c-0.3,0.2-0.7,0.7-1.1,1.5
			l-8.9,18.3c-0.5,1.1-1.3,2-2.2,2.6c-0.9,0.5-2,0.8-3.2,0.8H54.9c-1.2,0-2.2-0.4-2.9-1.1c-0.7-0.8-1.1-1.7-1.2-2.9l-2.7-15.5
			c-0.4-2.8-0.6-5.2-0.4-7.2c0.3-2.1,0.6-4.3,1.1-6.7l8.5-43.4c0.3-1.4,0.8-2.4,1.5-3c0.8-0.7,1.9-1,3.3-1h17.3c1.4,0,2.4,0.3,2.8,1
			c0.6,0.6,0.7,1.6,0.4,3l-8,41.3l9.3-14.2c0.8-1.3,1.8-2.2,2.9-2.7s2.3-0.8,3.8-0.8h4.7c1.4,0,2.6,0.3,3.4,0.8
			c0.9,0.5,1.5,1.4,1.8,2.7l3.8,14.2l8.1-41.4c0.3-1.4,0.8-2.4,1.5-3C114.7,302.4,115.8,302.1,117.2,302.1z"/>
		<path class="st0" d="M192.8,383h-52.1c-1.4,0-2.4-0.3-3-0.9c-0.5-0.7-0.6-1.7-0.3-3.1l14.2-72.8c0.3-1.4,0.8-2.4,1.5-3
			c0.8-0.7,1.9-1,3.3-1h52.1c1.4,0,2.4,0.3,2.8,1c0.6,0.6,0.7,1.6,0.4,3l-2.6,13.1c-0.3,1.4-0.8,2.5-1.6,3.1
			c-0.7,0.6-1.8,0.9-3.2,0.9h-31l-1.7,8.7h21.9c1.4,0,2.4,0.3,2.8,1c0.6,0.6,0.7,1.6,0.4,3l-2.3,12c-0.3,1.4-0.8,2.5-1.6,3.1
			c-0.7,0.6-1.8,0.9-3.2,0.9h-21.9l-1.9,9.7h31c1.4,0,2.4,0.3,2.8,1c0.6,0.6,0.7,1.6,0.4,3l-2.6,13.1c-0.3,1.4-0.8,2.5-1.6,3.1
			C195.3,382.7,194.2,383,192.8,383z"/>
		<path class="st0" d="M241.7,350.6l-2.6,13.3h14.6c1.4,0,2.5-0.4,3.4-1.1c0.9-0.8,1.5-1.9,1.8-3.4l0.9-4.4c0.3-1.5,0.1-2.6-0.5-3.3
			c-0.5-0.8-1.5-1.1-2.9-1.1H241.7z M247.4,321.2l-2.4,12.1h9.5c1.4,0,2.5-0.4,3.4-1.1c0.9-0.8,1.5-1.9,1.8-3.4l0.6-3.1
			c0.3-1.5,0.1-2.6-0.5-3.4c-0.5-0.7-1.5-1.1-2.9-1.1H247.4z M257.3,383h-43.1c-1.4,0-2.4-0.3-3-0.9c-0.5-0.7-0.6-1.7-0.3-3.1
			l14.2-72.8c0.3-1.4,0.8-2.4,1.5-3c0.8-0.7,1.9-1,3.3-1h35.8c7.3,0,12.5,1.4,15.5,4.3c3,2.8,3.9,7.1,2.8,12.9l-1.1,5.4
			c-0.6,3.1-1.7,5.7-3.2,7.8c-1.4,1.9-3.4,3.4-5.8,4.4c4.7,0.4,7.9,2.1,9.7,4.9c1.8,2.8,2.1,7,1.1,12.5l-2,10.3
			c-1.2,6.3-3.9,10.9-8.1,13.9C270.5,381.5,264.7,383,257.3,383z"/>
		<path class="st0" d="M317.6,332l-4.2,21.3h7.5c1,0,1.8-0.3,2.3-0.8c0.6-0.5,1-1.3,1.2-2.3l3-15.2c0.2-1,0.1-1.8-0.3-2.3
			s-1-0.8-2-0.8h-7.5V332z M320.3,365.2h-21.1c-0.8,0-1.3-0.2-1.7-0.5c-0.3-0.4-0.3-1-0.2-1.8l7.9-40.6c0.2-0.8,0.4-1.4,0.8-1.7
			c0.4-0.4,1.1-0.6,1.9-0.6H329c5.2,0,8.9,1,11,3.1c2.1,2.1,2.8,5.3,1.9,9.7l-3.8,19.6c-0.8,4.3-2.8,7.6-5.7,9.7
			C329.6,364.1,325.5,365.2,320.3,365.2z"/>
		<path class="st0" d="M375,365.2h-29.1c-0.8,0-1.3-0.2-1.7-0.5c-0.3-0.4-0.3-1-0.2-1.8l7.9-40.6c0.2-0.8,0.4-1.4,0.8-1.7
			c0.4-0.4,1.1-0.6,1.9-0.6h29.1c0.8,0,1.3,0.2,1.6,0.6c0.3,0.3,0.4,0.9,0.2,1.7l-1.4,7.3c-0.2,0.8-0.5,1.4-0.9,1.8
			c-0.4,0.3-1,0.5-1.8,0.5h-17.3l-0.9,4.8h12.2c0.8,0,1.3,0.2,1.6,0.6c0.3,0.3,0.4,0.9,0.2,1.7l-1.3,6.7c-0.2,0.8-0.5,1.4-0.9,1.8
			c-0.4,0.3-1,0.5-1.8,0.5H361l-1.1,5.4h17.3c0.8,0,1.3,0.2,1.6,0.6c0.3,0.3,0.4,0.9,0.2,1.7l-1.4,7.3c-0.2,0.8-0.5,1.4-0.9,1.8
			C376.4,365,375.8,365.2,375,365.2z"/>
		<path class="st0" d="M405.6,365.2h-19.8c-0.8,0-1.3-0.2-1.7-0.5c-0.3-0.4-0.3-1-0.2-1.8l1.4-7.3c0.2-0.8,0.4-1.4,0.8-1.7
			c0.4-0.4,1.1-0.6,1.9-0.6h17c0.5,0,1-0.2,1.3-0.5c0.4-0.4,0.6-0.8,0.7-1.3c0.1-0.7,0.1-1.2-0.1-1.6c-0.2-0.3-0.5-0.5-1.1-0.6
			l-9.1-1.3c-2.8-0.4-5-1.4-6.5-2.9s-1.8-4-1.2-7.5l1.3-6.6c0.7-3.6,2.4-6.3,5-8.1c2.7-1.9,6-2.9,10.1-2.9H423
			c0.8,0,1.3,0.2,1.6,0.6c0.3,0.3,0.4,0.9,0.2,1.7l-1.5,7.5c-0.2,0.8-0.5,1.4-0.9,1.8c-0.4,0.3-1,0.5-1.8,0.5H406
			c-0.5,0-1,0.2-1.4,0.6c-0.4,0.3-0.6,0.8-0.7,1.3s-0.1,1,0.2,1.4c0.2,0.4,0.6,0.6,1.1,0.6l9.1,1.3c2.8,0.4,5,1.4,6.5,2.9
			s1.9,4,1.2,7.5l-1.3,6.6c-0.7,3.6-2.4,6.3-5.1,8.2C413,364.2,409.6,365.2,405.6,365.2z"/>
		<path class="st0" d="M426.7,365.2c-0.8,0-1.3-0.2-1.7-0.5c-0.3-0.4-0.3-1-0.2-1.8l1.5-7.5c0.2-0.8,0.4-1.4,0.8-1.7
			c0.4-0.4,1.1-0.6,1.9-0.6h6.2l4.1-21.1h-6.2c-0.8,0-1.3-0.2-1.7-0.5c-0.3-0.4-0.3-1-0.2-1.8l1.5-7.6c0.2-0.8,0.4-1.4,0.8-1.7
			c0.4-0.4,1.1-0.6,1.9-0.6h26.7c0.8,0,1.3,0.2,1.6,0.6c0.3,0.3,0.4,0.9,0.2,1.7l-1.5,7.6c-0.2,0.8-0.5,1.4-0.9,1.8
			c-0.4,0.3-1,0.5-1.8,0.5h-6.1l-4.1,21.1h6.1c0.8,0,1.3,0.2,1.6,0.6c0.3,0.3,0.4,0.9,0.2,1.7l-1.5,7.5c-0.2,0.8-0.5,1.4-0.9,1.8
			c-0.4,0.3-1,0.5-1.8,0.5H426.7z"/>
		<path class="st0" d="M497.9,365.2h-19.8c-5.2,0-8.9-1-11.1-3.1c-2.1-2.1-2.7-5.3-1.9-9.7l3.8-19.6c0.8-4.3,2.7-7.6,5.6-9.7
			c3-2.1,7.1-3.1,12.3-3.1h15.7c0.8,0,1.3,0.2,1.6,0.6c0.3,0.3,0.4,0.9,0.2,1.7l-1.5,7.6c-0.2,0.8-0.5,1.4-0.9,1.8
			c-0.4,0.3-1,0.5-1.8,0.5h-13c-1.3,0-2.3,0.3-3,0.8s-1.2,1.3-1.4,2.3l-2.9,15c-0.2,1-0.1,1.8,0.2,2.3c0.4,0.5,1.1,0.8,2.1,0.8h6.1
			l1.9-9.8c0.2-0.8,0.4-1.4,0.8-1.7c0.4-0.4,1.1-0.6,1.9-0.6h9.7c0.8,0,1.3,0.2,1.6,0.6c0.3,0.3,0.4,0.9,0.2,1.7l-3.8,19.4
			c-0.2,0.8-0.5,1.4-0.9,1.8C499.3,365,498.7,365.2,497.9,365.2z"/>
		<path class="st0" d="M519.5,365.2h-9.4c-0.8,0-1.3-0.2-1.7-0.5c-0.3-0.4-0.3-1-0.2-1.8l7.9-40.6c0.2-0.8,0.4-1.4,0.8-1.7
			c0.5-0.4,1.1-0.6,1.9-0.6h6.5c0.8,0,1.4,0.1,1.9,0.4c0.5,0.3,1,0.7,1.4,1.3l9.4,13.9l2.6-13.4c0.2-0.8,0.4-1.4,0.8-1.7
			c0.4-0.4,1.1-0.6,1.9-0.6h9.4c0.8,0,1.3,0.2,1.6,0.6c0.3,0.3,0.4,0.9,0.2,1.7l-7.9,40.6c-0.2,0.8-0.5,1.4-0.9,1.8
			c-0.4,0.3-1,0.5-1.8,0.5h-9.4c-0.8,0-1.3-0.2-1.7-0.5c-0.3-0.4-0.3-1-0.2-1.8l1.5-7.7l-8.2-13l-4,20.7c-0.2,0.8-0.5,1.4-0.9,1.8
			C520.9,365,520.3,365.2,519.5,365.2z"/>
		<path class="st0" d="M297.5,369.3h249c0.8,0,1.2,1.3,0.8,3l-1.2,6c-0.3,1.7-1.2,3-2,3h-249c-0.8,0-1.2-1.3-0.8-3l1.2-6
			C295.8,370.6,296.7,369.3,297.5,369.3z"/>
		<path class="st0" d="M310.2,304.2h249c0.8,0,1.2,1.3,0.8,3l-1.2,6c-0.3,1.7-1.2,3-2,3h-249c-0.8,0-1.2-1.3-0.8-3l1.2-6
			C308.5,305.5,309.4,304.2,310.2,304.2z"/>
	</g>
	<g>
		<path class="st1" d="M57.6,243h508.5c14.3,0,24.2,8.6,22.1,19.2L566,376.4c-2.1,10.6-15.3,19.2-29.6,19.2H27.8
			c-14.3,0-24.2-8.6-22.1-19.2L28,262.2C30.1,251.6,43.3,243,57.6,243z"/>
		<g>
			<path class="st2" d="M56.9,289.5c-2.2,0-3.9-0.6-4.9-1.7l-0.1-0.1l-0.1-0.1c-0.9-1.3-1.1-3-0.7-5.2L66,206.3
				c0.4-2.1,1.2-3.6,2.4-4.6c1.3-1.1,3-1.6,5.1-1.6H113c10.6,0,17.9,2.2,22.4,6.6c4.6,4.5,6.1,11.4,4.3,20.3l-7.2,36.5
				c-1.7,8.8-5.6,15.4-11.7,19.7c-5.9,4.2-14,6.3-24.3,6.3H56.9z M97.6,262.3c1.2,0,2.1-0.3,2.7-0.8c0.7-0.6,1.2-1.6,1.5-3l5.6-28.5
				c0.3-1.4,0.1-2,0-2.1l-0.1-0.1l-0.1-0.1c-0.1-0.1-0.5-0.4-1.8-0.4H93.5l-6.8,34.9L97.6,262.3L97.6,262.3z"/>
			<path class="st1" d="M113,202.4c9.8,0,16.7,2,20.6,5.9c4,3.9,5.2,9.9,3.6,18.1l-7.2,36.7c-1.6,8.1-5.2,14.2-10.7,18.1
				c-5.5,3.9-13.1,5.9-22.9,5.9H56.9c-1.5,0-2.5-0.3-3.1-0.9c-0.5-0.7-0.6-1.8-0.3-3.3l14.9-76.1c0.3-1.5,0.8-2.5,1.6-3.2
				c0.8-0.7,2-1.1,3.5-1.1H113 M83.6,264.8h14c1.9,0,3.3-0.5,4.4-1.4s1.9-2.4,2.3-4.3l5.6-28.6c0.4-2,0.2-3.4-0.6-4.2
				c-0.7-0.9-2-1.4-3.8-1.4h-14L83.6,264.8 M113,197.4H73.4c-2.7,0-5,0.8-6.7,2.2c-1.6,1.4-2.7,3.4-3.2,6l-14.9,76.2
				c-0.6,2.9-0.2,5.2,1.1,7.1l0.2,0.3l0.2,0.3c1.6,1.7,3.8,2.5,6.8,2.5h39.6c10.8,0,19.5-2.3,25.8-6.8c6.6-4.7,10.9-11.8,12.7-21.2
				l7.2-36.6c1.9-9.9,0.2-17.5-5.1-22.6C132.1,199.8,124.2,197.4,113,197.4L113,197.4z M95.6,229.9h9.3l-5.5,28.2
				c-0.2,0.9-0.5,1.4-0.6,1.5l-0.1,0.1l-0.1,0.1l0,0c0,0-0.3,0.1-1.1,0.1h-7.9L95.6,229.9L95.6,229.9z"/>
		</g>
		<g>
			<path class="st2" d="M192,289.5c-2.2,0-3.9-0.6-4.9-1.7l-0.1-0.1l-0.1-0.1c-0.9-1.3-1.1-3-0.7-5.2l3.5-18
				c0.3-1.4,0.1-1.9,0.1-1.9l-0.1-0.1c-0.1,0-0.4-0.1-1-0.1h-14.4l-4.1,21c-0.4,2.1-1.3,3.7-2.6,4.7c-1.2,1-2.9,1.5-5,1.5h-18.1
				c-2.2,0-3.9-0.6-4.9-1.7l-0.1-0.1l-0.1-0.1c-0.9-1.3-1.1-3-0.7-5.2l14.9-76.1c0.4-2.1,1.2-3.6,2.4-4.6c1.3-1.1,3-1.6,5.1-1.6
				h39.1c9.7,0,16,2.2,19.1,6.6c3,4.1,4,9.5,2.7,16l-1.1,5.4c-0.7,3.6-1.9,6.7-3.5,9.3c-0.6,1-1.3,1.9-2.2,2.7
				c2.2,1.1,3.9,2.6,5.3,4.7c2.5,3.5,3.2,8.1,2.1,13.7l-4.9,24.9c-0.4,2.1-1.3,3.6-2.5,4.7c-1.2,1-2.9,1.5-5,1.5H192V289.5z
				 M185.1,236.1c1.2,0,2.1-0.2,2.5-0.7c0.6-0.7,1-1.7,1.2-2.8l0.8-4c0.2-1,0.2-1.8-0.1-2.3l0,0c-0.1-0.1-0.5-0.2-1.5-0.2h-6.8
				l-2,10H185.1z"/>
			<path class="st1" d="M200.1,202.4c8.8,0,14.4,1.8,17,5.5c2.7,3.6,3.4,8.3,2.3,14.1l-1.1,5.4c-0.6,3.3-1.7,6.1-3.2,8.5
				c-1.4,2.3-3.4,3.9-6,4.9c4.1,0.5,7.2,2.2,9.2,5.2c2.1,3,2.6,6.9,1.7,11.9l-4.9,24.9c-0.3,1.5-0.9,2.6-1.7,3.3
				c-0.8,0.6-1.9,0.9-3.4,0.9h-18c-1.5,0-2.5-0.3-3.1-0.9c-0.5-0.7-0.6-1.8-0.3-3.3l3.5-18c0.3-1.7,0.2-3-0.3-3.8
				c-0.5-0.9-1.5-1.3-3.2-1.3h-16.4l-4.5,23c-0.3,1.5-0.9,2.6-1.7,3.3c-0.8,0.6-1.9,0.9-3.4,0.9h-18.1c-1.5,0-2.5-0.3-3.1-0.9
				c-0.5-0.7-0.6-1.8-0.3-3.3l14.9-76c0.3-1.5,0.8-2.5,1.6-3.2s2-1.1,3.5-1.1H200.1 M176.3,238.6h8.8c2,0,3.5-0.5,4.4-1.5
				c0.9-1.1,1.5-2.4,1.8-4l0.8-4c0.3-1.6,0.2-2.9-0.3-3.9c-0.5-1.1-1.8-1.6-3.8-1.6h-8.8L176.3,238.6 M200.1,197.4H161
				c-2.7,0-4.9,0.7-6.7,2.2c-1.6,1.4-2.7,3.4-3.3,6.1l-14.9,76.1c-0.6,2.9-0.2,5.3,1.1,7.1l0.2,0.3l0.2,0.3c1.6,1.7,3.8,2.5,6.8,2.5
				h18.1c2.7,0,4.9-0.7,6.6-2.1c1.7-1.5,2.9-3.5,3.4-6.2l3.7-19H187l-3.3,17.1c-0.6,2.8-0.2,5.2,1.1,7.1l0.2,0.3l0.2,0.3
				c1.6,1.7,3.8,2.5,6.8,2.5h18.2c2.7,0,4.9-0.7,6.6-2.1c1.7-1.5,2.9-3.5,3.4-6.2l4.9-24.9c1.2-6.3,0.4-11.5-2.5-15.7
				c-1-1.5-2.2-2.8-3.6-3.8c0.2-0.3,0.4-0.5,0.5-0.8c1.8-2.9,3.1-6.3,3.8-10.1l1.1-5.4c1.4-7.2,0.3-13.2-3.1-18
				C217.6,199.9,210.7,197.4,200.1,197.4L200.1,197.4z M183.3,228.6h3.8l-0.7,3.6c-0.1,0.6-0.3,1-0.5,1.4c-0.2,0-0.4,0.1-0.8,0.1
				h-2.7L183.3,228.6L183.3,228.6z"/>
		</g>
		<g>
			<path class="st2" d="M276.8,289.5c-2.3,0-3.9-0.5-5.1-1.6l-0.1-0.1l-0.1-0.1c-1.1-1.3-1.4-3.1-0.9-5.3l2.6-13.5h-15.7l-2.8,14.4
				c-0.4,2.1-1.3,3.7-2.5,4.7s-2.9,1.5-5,1.5H230c-2.2,0-3.9-0.6-4.9-1.7l-0.1-0.1l-0.1-0.1c-0.9-1.3-1.1-3-0.7-5.2l6.1-31
				c0.5-2.5,1.4-5.4,2.8-8.6c1.4-3.2,3.4-6.8,5.7-11l15.4-26.7c0.9-1.7,2.1-3,3.6-3.8c1.6-0.9,3.3-1.3,5.3-1.3h31.6
				c2,0,3.7,0.5,4.9,1.4c1,0.7,2.3,2.1,2.7,4.6l5,26.6c0.8,4.2,1.3,7.9,1.4,11.1c0.2,3.2,0,6.1-0.5,8.7l-6,31
				c-0.4,2.1-1.3,3.7-2.6,4.7c-1.2,1-2.9,1.5-5,1.5h-17.8V289.5z M276.5,242.5l-1.7-14.9h-2.2c-0.1,0.1-0.3,0.3-0.6,0.7l-7.1,14.2
				H276.5z"/>
			<path class="st1" d="M294.6,202.4c1.5,0,2.6,0.3,3.5,0.9c0.9,0.6,1.4,1.6,1.7,2.9l5,26.7c0.8,4.1,1.2,7.6,1.3,10.7
				c0.2,3.1,0.1,5.8-0.4,8.1l-6.1,31c-0.3,1.5-0.9,2.6-1.7,3.3c-0.8,0.6-1.9,0.9-3.4,0.9h-17.7c-1.6,0-2.7-0.3-3.3-0.9
				c-0.6-0.7-0.7-1.8-0.4-3.3l3.2-16.4h-20.8l-3.2,16.4c-0.3,1.5-0.9,2.6-1.7,3.3c-0.7,0.6-1.9,0.9-3.4,0.9H230
				c-1.5,0-2.5-0.3-3.1-0.9c-0.5-0.7-0.6-1.8-0.3-3.3l6.1-31c0.5-2.3,1.3-5.1,2.6-8.1c1.4-3.1,3.3-6.6,5.6-10.7l15.4-26.7
				c0.7-1.3,1.6-2.3,2.7-2.9c1.1-0.6,2.5-0.9,4.1-0.9L294.6,202.4 M260.8,245h18.4l-2-17.9c-0.2-0.7-0.4-1.2-0.8-1.5
				c-0.3-0.3-0.6-0.5-1.1-0.5h-2.9c-0.5,0-0.9,0.2-1.4,0.5c-0.4,0.3-0.8,0.8-1.2,1.5L260.8,245 M294.6,197.4H263
				c-2.4,0-4.6,0.5-6.5,1.6h-0.1h-0.1c-1.8,1.1-3.3,2.7-4.5,4.8l-15.3,26.7c-2.4,4.2-4.4,8-5.8,11.1l0,0l0,0
				c-1.4,3.4-2.4,6.4-2.9,9.1l-6.1,31c-0.6,2.8-0.2,5.2,1.1,7.1l0.2,0.3l0.2,0.3c1.6,1.7,3.8,2.5,6.8,2.5h17.3
				c2.7,0,4.9-0.7,6.6-2.1c1.7-1.4,2.9-3.5,3.4-6.2l2.4-12.4h10.6l-2,10.5c-0.6,3-0.1,5.5,1.4,7.4l0.2,0.3l0.2,0.2
				c1.6,1.5,3.9,2.3,6.8,2.3h17.7c2.7,0,4.9-0.7,6.6-2.1c1.7-1.5,2.9-3.5,3.4-6.2l6.1-31c0.5-2.7,0.7-5.8,0.5-9.3
				c-0.1-3.3-0.6-7.1-1.4-11.4l-5-26.6c-0.5-3.3-2.2-5.1-3.6-6.1C299.3,198.1,297.2,197.4,294.6,197.4L294.6,197.4z M269,240
				l3.8-7.6l0.9,7.6H269L269,240z"/>
		</g>
		<g>
			<path class="st2" d="M340.9,289.5c-10.6,0-17.9-2.2-22.5-6.6c-4.6-4.5-6-11.4-4.2-20.4l7.2-36.7c1.7-8.8,5.6-15.4,11.6-19.6
				s14.2-6.3,24.5-6.3h29.4c2.3,0,3.9,0.7,4.9,2c1.1,1.2,1.4,3,0.9,5.2l-2.8,14.2c-0.4,2.1-1.3,3.7-2.6,4.7c-1.2,1-2.9,1.5-5,1.5
				h-24.4c-1.9,0-3.3,0.3-4.2,1c-0.9,0.6-1.4,1.5-1.6,2.8l-5.5,28.1c-0.3,1.4-0.1,2.1,0,2.4c0.3,0.3,1,0.4,1.8,0.4h9.3l3.2-16.3
				c0.4-2.1,1.2-3.6,2.4-4.6c1.3-1.1,3-1.6,5.1-1.6h18.2c2.3,0,3.9,0.7,4.9,2c1.1,1.2,1.4,3,0.9,5.2l-7.1,36.3
				c-0.4,2.1-1.3,3.7-2.5,4.7s-2.9,1.5-5,1.5L340.9,289.5L340.9,289.5z"/>
			<path class="st1" d="M386.8,202.4c1.5,0,2.5,0.4,3,1.1c0.6,0.6,0.7,1.7,0.4,3.2l-2.8,14.2c-0.3,1.5-0.9,2.6-1.7,3.3
				c-0.8,0.6-1.9,0.9-3.4,0.9h-24.4c-2.4,0-4.3,0.5-5.7,1.5c-1.4,0.9-2.2,2.4-2.6,4.3l-5.5,28.1c-0.4,2-0.2,3.4,0.4,4.3
				c0.8,0.9,2,1.4,3.8,1.4h11.4l3.6-18.3c0.3-1.5,0.8-2.5,1.6-3.2c0.8-0.7,2-1.1,3.5-1.1h18.2c1.5,0,2.5,0.4,3,1.1
				c0.6,0.6,0.7,1.7,0.4,3.2l-7,36.4c-0.3,1.5-0.9,2.6-1.7,3.3c-0.8,0.6-1.9,0.9-3.4,0.9h-37c-9.8,0-16.7-2-20.7-5.9
				c-3.9-3.9-5.1-9.9-3.5-18.1l7.2-36.7c1.6-8.1,5.1-14.2,10.6-18.1c5.5-3.9,13.2-5.9,23-5.9L386.8,202.4 M386.8,197.4h-29.4
				c-10.8,0-19.5,2.3-25.9,6.8c-6.5,4.7-10.8,11.8-12.6,21.2l-7.2,36.7c-1.9,9.8-0.3,17.4,4.9,22.6l0,0l0,0c5,4.9,12.9,7.3,24.2,7.3
				h37c2.7,0,4.9-0.7,6.6-2.1c1.7-1.5,2.9-3.5,3.4-6.2l7.2-36.2c0.7-3.6-0.3-5.9-1.4-7.3c-1.1-1.4-3.1-2.9-6.9-2.9h-18.2
				c-2.7,0-4.9,0.7-6.7,2.2c-1.6,1.4-2.7,3.4-3.3,6l-2.8,14.3h-6.6l5.4-27.9c0.1-0.6,0.3-1,0.5-1.2h0.1h0.1c0.2-0.2,0.9-0.5,2.7-0.5
				h24.4c2.7,0,4.9-0.7,6.6-2.1c1.7-1.4,2.9-3.5,3.4-6.2l2.8-14.2c0.7-3.6-0.3-5.9-1.4-7.3C392.6,199,390.5,197.4,386.8,197.4
				L386.8,197.4z"/>
		</g>
		<g>
			<path class="st2" d="M445.9,289.5c-2.3,0-3.9-0.5-5.1-1.6l-0.1-0.1l-0.1-0.1c-1-1.3-1.4-3.1-0.9-5.3l2.6-13.5h-15.7l-2.8,14.4
				c-0.4,2.1-1.3,3.7-2.6,4.7c-1.2,1-2.9,1.5-5,1.5h-17.3c-2.2,0-3.9-0.6-4.9-1.7l-0.1-0.1l-0.1-0.1c-0.9-1.3-1.1-3-0.7-5.2l6-31
				c0.5-2.5,1.4-5.4,2.8-8.6c1.4-3.2,3.4-6.8,5.7-11l15.4-26.7c0.9-1.7,2.1-3,3.6-3.8c1.6-0.9,3.3-1.3,5.3-1.3h31.6
				c2,0,3.7,0.5,4.9,1.4c1,0.7,2.3,2.1,2.7,4.6l5,26.6c0.8,4.2,1.3,7.9,1.4,11.1c0.2,3.2,0,6.1-0.5,8.7l-6,31
				c-0.4,2.1-1.3,3.6-2.5,4.7c-1.2,1-2.9,1.5-5,1.5h-17.6V289.5z M445.6,242.5l-1.7-14.9h-2.2c-0.1,0.1-0.3,0.3-0.6,0.7l-7.1,14.2
				H445.6z"/>
			<path class="st1" d="M463.7,202.4c1.5,0,2.6,0.3,3.5,0.9c0.9,0.6,1.4,1.6,1.7,2.9l5,26.7c0.8,4.1,1.2,7.6,1.3,10.7
				c0.2,3.1,0.1,5.8-0.4,8.1l-6.1,31c-0.3,1.5-0.9,2.6-1.7,3.3c-0.8,0.6-1.9,0.9-3.4,0.9h-17.7c-1.6,0-2.7-0.3-3.3-0.9
				c-0.6-0.7-0.7-1.8-0.4-3.3l3.2-16.4h-20.8l-3.2,16.4c-0.3,1.5-0.9,2.6-1.7,3.3c-0.8,0.6-1.9,0.9-3.4,0.9H399
				c-1.5,0-2.5-0.3-3.1-0.9c-0.5-0.7-0.6-1.8-0.3-3.3l6.1-31c0.5-2.3,1.3-5.1,2.6-8.1c1.4-3.1,3.3-6.6,5.6-10.7l15.4-26.7
				c0.7-1.3,1.6-2.3,2.7-2.9c1.1-0.6,2.5-0.9,4.1-0.9L463.7,202.4 M429.9,245h18.4l-2-17.9c-0.2-0.7-0.4-1.2-0.8-1.5
				c-0.3-0.3-0.6-0.5-1.1-0.5h-2.9c-0.5,0-0.9,0.2-1.4,0.5c-0.4,0.3-0.8,0.8-1.2,1.5L429.9,245 M463.7,197.4h-31.6
				c-2.4,0-4.6,0.5-6.5,1.6h-0.1h-0.1c-1.8,1.1-3.3,2.7-4.5,4.8l-15.3,26.7c-2.4,4.2-4.4,8-5.8,11.1l0,0l0,0
				c-1.5,3.4-2.4,6.4-2.9,9.1l-6,31c-0.6,2.8-0.2,5.2,1.1,7.1l0.2,0.3l0.2,0.3c1.6,1.7,3.8,2.5,6.8,2.5h17.3c2.7,0,4.9-0.7,6.6-2.1
				c1.7-1.5,2.9-3.5,3.4-6.2l2.4-12.4h10.6l-2,10.5c-0.7,3.7,0.4,6.1,1.4,7.4l0.2,0.3l0.2,0.2c1.6,1.5,3.9,2.3,6.8,2.3h17.7
				c2.7,0,4.9-0.7,6.6-2.1c1.7-1.5,2.9-3.5,3.4-6.2l6.1-31c0.5-2.7,0.7-5.9,0.5-9.3c-0.1-3.3-0.6-7.1-1.4-11.4l-5-26.6
				c-0.5-3.3-2.2-5.1-3.6-6.1C468.5,198.1,466.3,197.4,463.7,197.4L463.7,197.4z M438.1,240l3.8-7.6l0.9,7.6H438.1L438.1,240z"/>
		</g>
		<g>
			<path class="st2" d="M532.8,289.5c-2.2,0-3.9-0.6-4.9-1.7l-0.1-0.1l-0.1-0.1c-0.9-1.3-1.1-3-0.7-5.2l2.6-13.5l-11.5-18.2
				l-6.4,32.6c-0.4,2.1-1.3,3.7-2.6,4.7c-1.2,1-2.9,1.5-5,1.5h-17.6c-2.2,0-3.9-0.6-4.9-1.7l-0.1-0.1l-0.1-0.1
				c-0.9-1.3-1.1-3-0.7-5.2l14.9-76.1c0.4-2.1,1.2-3.6,2.4-4.6c1.3-1.1,3-1.6,5.1-1.6h12.2c1.9,0,3.5,0.3,4.8,1
				c1.3,0.6,2.6,1.7,3.6,3.3l14.3,21.1l3.7-19.1c0.4-2.1,1.2-3.6,2.4-4.6c1.3-1.1,3-1.6,5.1-1.6h17.6c2.3,0,3.9,0.7,4.9,2
				c1.1,1.2,1.4,3,0.9,5.2l-14.9,76.1c-0.4,2.1-1.3,3.7-2.6,4.7c-1.2,1-2.9,1.5-5,1.5h-17.3V289.5z"/>
			<path class="st1" d="M566.9,202.4c1.5,0,2.5,0.4,3,1.1c0.6,0.6,0.7,1.7,0.4,3.2l-14.9,76.1c-0.3,1.5-0.9,2.6-1.7,3.3
				c-0.8,0.6-1.9,0.9-3.4,0.9h-17.6c-1.5,0-2.5-0.3-3.1-0.9c-0.5-0.7-0.6-1.8-0.3-3.3l2.8-14.4l-15.3-24.3l-7.6,38.8
				c-0.3,1.5-0.9,2.6-1.7,3.3c-0.8,0.6-1.9,0.9-3.4,0.9h-17.6c-1.5,0-2.5-0.3-3.1-0.9c-0.5-0.7-0.6-1.8-0.3-3.3l14.9-76.1
				c0.3-1.5,0.8-2.5,1.6-3.2c0.8-0.7,2-1.1,3.5-1.1h12.2c1.5,0,2.7,0.2,3.6,0.7c1,0.5,1.9,1.3,2.7,2.5l17.7,26.1l4.9-25
				c0.3-1.5,0.8-2.5,1.6-3.2s2-1.1,3.5-1.1h17.6 M566.9,197.4h-17.6c-2.7,0-4.9,0.7-6.7,2.2c-1.6,1.4-2.7,3.4-3.3,6l-2.6,13.2
				l-11-16.1c-1.3-1.9-2.8-3.3-4.6-4.2c-1.6-0.8-3.5-1.2-5.8-1.2h-12.2c-2.7,0-4.9,0.7-6.7,2.2c-1.6,1.4-2.7,3.4-3.3,6l-14.9,76.1
				c-0.6,2.9-0.2,5.3,1.1,7.1l0.2,0.3l0.2,0.3c1.6,1.7,3.8,2.5,6.8,2.5h17.6c2.7,0,4.9-0.7,6.6-2.1c1.7-1.5,2.9-3.5,3.4-6.2
				l5.2-26.4l7.6,12l-2.4,12.5c-0.6,2.9-0.2,5.2,1.1,7.1l0.2,0.3l0.2,0.3c1.6,1.7,3.8,2.5,6.8,2.5h17.6c2.7,0,4.9-0.7,6.6-2.1
				c1.7-1.5,2.9-3.5,3.4-6.2l14.9-76.1c0.7-3.7-0.3-5.9-1.4-7.3C572.7,199,570.7,197.4,566.9,197.4L566.9,197.4z"/>
		</g>
		<path class="st2" d="M110.2,297.1h16.7c1.4,0,2.4,0.3,2.8,1c0.6,0.6,0.7,1.6,0.4,3l-8.5,43.6c-0.5,2.4-1,4.6-1.7,6.7
			c-0.5,2-1.6,4.4-3.1,7.2l-8.6,15.3c-0.6,1.1-1.3,2.1-2.3,2.9c-0.8,0.7-1.8,1.1-3,1.1H88.1c-1.2,0-2.2-0.3-3.1-0.8
			s-1.3-1.4-1.4-2.6L82,356.3c-0.1-0.8-0.3-1.2-0.6-1.5c-0.2-0.3-0.6-0.4-1-0.4h-1c-0.4,0-0.9,0.1-1.3,0.4c-0.3,0.2-0.7,0.7-1.1,1.5
			l-8.9,18.3c-0.5,1.1-1.3,2-2.2,2.6c-0.9,0.5-2,0.8-3.2,0.8H47.9c-1.2,0-2.2-0.4-2.9-1.1c-0.7-0.8-1.1-1.7-1.2-2.9l-2.7-15.5
			c-0.4-2.8-0.6-5.2-0.4-7.2c0.3-2.1,0.6-4.3,1.1-6.7l8.5-43.4c0.3-1.4,0.8-2.4,1.5-3c0.8-0.7,1.9-1,3.3-1h17.3c1.4,0,2.4,0.3,2.8,1
			c0.6,0.6,0.7,1.6,0.4,3l-8,41.3l9.3-14.2c0.8-1.3,1.8-2.2,2.9-2.7s2.3-0.8,3.8-0.8h4.7c1.4,0,2.6,0.3,3.4,0.8
			c0.9,0.5,1.5,1.4,1.8,2.7l3.8,14.2l8.1-41.4c0.3-1.4,0.8-2.4,1.5-3C107.7,297.4,108.8,297.1,110.2,297.1z"/>
		<path class="st2" d="M185.8,378h-52.1c-1.4,0-2.4-0.3-3-0.9c-0.5-0.7-0.6-1.7-0.3-3.1l14.2-72.8c0.3-1.4,0.8-2.4,1.5-3
			c0.8-0.7,1.9-1,3.3-1h52.1c1.4,0,2.4,0.3,2.8,1c0.6,0.6,0.7,1.6,0.4,3l-2.6,13.1c-0.3,1.4-0.8,2.5-1.6,3.1
			c-0.7,0.6-1.8,0.9-3.2,0.9h-31l-1.7,8.7h21.9c1.4,0,2.4,0.3,2.8,1c0.6,0.6,0.7,1.6,0.4,3l-2.3,12c-0.3,1.4-0.8,2.5-1.6,3.1
			c-0.7,0.6-1.8,0.9-3.2,0.9h-21.9l-1.9,9.7h31c1.4,0,2.4,0.3,2.8,1c0.6,0.6,0.7,1.6,0.4,3l-2.6,13.1c-0.3,1.4-0.8,2.5-1.6,3.1
			C188.3,377.7,187.2,378,185.8,378z"/>
		<path class="st2" d="M234.7,345.6l-2.6,13.3h14.6c1.4,0,2.5-0.4,3.4-1.1c0.9-0.8,1.5-1.9,1.8-3.4l0.9-4.4c0.3-1.5,0.1-2.6-0.5-3.3
			c-0.5-0.8-1.5-1.1-2.9-1.1H234.7z M240.4,316.2l-2.4,12.1h9.5c1.4,0,2.5-0.4,3.4-1.1c0.9-0.8,1.5-1.9,1.8-3.4l0.6-3.1
			c0.3-1.5,0.1-2.6-0.5-3.4c-0.5-0.7-1.5-1.1-2.9-1.1H240.4z M250.3,378h-43.1c-1.4,0-2.4-0.3-3-0.9c-0.5-0.7-0.6-1.7-0.3-3.1
			l14.2-72.8c0.3-1.4,0.8-2.4,1.5-3c0.8-0.7,1.9-1,3.3-1h35.8c7.3,0,12.5,1.4,15.5,4.3c3,2.8,3.9,7.1,2.8,12.9l-1.1,5.4
			c-0.6,3.1-1.7,5.7-3.2,7.8c-1.4,1.9-3.4,3.4-5.8,4.4c4.7,0.4,7.9,2.1,9.7,4.9c1.8,2.8,2.1,7,1.1,12.5l-2,10.3
			c-1.2,6.3-3.9,10.9-8.1,13.9C263.5,376.5,257.7,378,250.3,378z"/>
		<path class="st2" d="M310.6,327l-4.2,21.3h7.5c1,0,1.8-0.3,2.3-0.8c0.6-0.5,1-1.3,1.2-2.3l3-15.2c0.2-1,0.1-1.8-0.3-2.3
			s-1-0.8-2-0.8h-7.5V327z M313.3,360.2h-21.1c-0.8,0-1.3-0.2-1.7-0.5c-0.3-0.4-0.3-1-0.2-1.8l7.9-40.6c0.2-0.8,0.4-1.4,0.8-1.7
			c0.4-0.4,1.1-0.6,1.9-0.6H322c5.2,0,8.9,1,11,3.1c2.1,2.1,2.8,5.3,1.9,9.7l-3.8,19.6c-0.8,4.3-2.8,7.6-5.7,9.7
			C322.6,359.1,318.5,360.2,313.3,360.2z"/>
		<path class="st2" d="M368,360.2h-29.1c-0.8,0-1.3-0.2-1.7-0.5c-0.3-0.4-0.3-1-0.2-1.8l7.9-40.6c0.2-0.8,0.4-1.4,0.8-1.7
			c0.4-0.4,1.1-0.6,1.9-0.6h29.1c0.8,0,1.3,0.2,1.6,0.6c0.3,0.3,0.4,0.9,0.2,1.7l-1.4,7.3c-0.2,0.8-0.5,1.4-0.9,1.8
			c-0.4,0.3-1,0.5-1.8,0.5h-17.3l-0.9,4.8h12.2c0.8,0,1.3,0.2,1.6,0.6c0.3,0.3,0.4,0.9,0.2,1.7l-1.3,6.7c-0.2,0.8-0.5,1.4-0.9,1.8
			c-0.4,0.3-1,0.5-1.8,0.5H354l-1.1,5.4h17.3c0.8,0,1.3,0.2,1.6,0.6c0.3,0.3,0.4,0.9,0.2,1.7l-1.4,7.3c-0.2,0.8-0.5,1.4-0.9,1.8
			C369.4,360,368.8,360.2,368,360.2z"/>
		<path class="st2" d="M398.6,360.2h-19.8c-0.8,0-1.3-0.2-1.7-0.5c-0.3-0.4-0.3-1-0.2-1.8l1.4-7.3c0.2-0.8,0.4-1.4,0.8-1.7
			c0.4-0.4,1.1-0.6,1.9-0.6h17c0.5,0,1-0.2,1.3-0.5c0.4-0.4,0.6-0.8,0.7-1.3c0.1-0.7,0.1-1.2-0.1-1.6c-0.2-0.3-0.5-0.5-1.1-0.6
			l-9.1-1.3c-2.8-0.4-5-1.4-6.5-2.9s-1.8-4-1.2-7.5l1.3-6.6c0.7-3.6,2.4-6.3,5-8.1c2.7-1.9,6-2.9,10.1-2.9H416
			c0.8,0,1.3,0.2,1.6,0.6c0.3,0.3,0.4,0.9,0.2,1.7l-1.5,7.5c-0.2,0.8-0.5,1.4-0.9,1.8c-0.4,0.3-1,0.5-1.8,0.5H399
			c-0.5,0-1,0.2-1.4,0.6c-0.4,0.3-0.6,0.8-0.7,1.3s-0.1,1,0.2,1.4c0.2,0.4,0.6,0.6,1.1,0.6l9.1,1.3c2.8,0.4,5,1.4,6.5,2.9
			s1.9,4,1.2,7.5l-1.3,6.6c-0.7,3.6-2.4,6.3-5.1,8.2C406,359.2,402.6,360.2,398.6,360.2z"/>
		<path class="st2" d="M419.7,360.2c-0.8,0-1.3-0.2-1.7-0.5c-0.3-0.4-0.3-1-0.2-1.8l1.5-7.5c0.2-0.8,0.4-1.4,0.8-1.7
			c0.4-0.4,1.1-0.6,1.9-0.6h6.2l4.1-21.1h-6.2c-0.8,0-1.3-0.2-1.7-0.5c-0.3-0.4-0.3-1-0.2-1.8l1.5-7.6c0.2-0.8,0.4-1.4,0.8-1.7
			c0.4-0.4,1.1-0.6,1.9-0.6h26.7c0.8,0,1.3,0.2,1.6,0.6c0.3,0.3,0.4,0.9,0.2,1.7l-1.5,7.6c-0.2,0.8-0.5,1.4-0.9,1.8
			c-0.4,0.3-1,0.5-1.8,0.5h-6.1l-4.1,21.1h6.1c0.8,0,1.3,0.2,1.6,0.6c0.3,0.3,0.4,0.9,0.2,1.7l-1.5,7.5c-0.2,0.8-0.5,1.4-0.9,1.8
			c-0.4,0.3-1,0.5-1.8,0.5H419.7z"/>
		<path class="st2" d="M490.9,360.2h-19.8c-5.2,0-8.9-1-11.1-3.1c-2.1-2.1-2.7-5.3-1.9-9.7l3.8-19.6c0.8-4.3,2.7-7.6,5.6-9.7
			c3-2.1,7.1-3.1,12.3-3.1h15.7c0.8,0,1.3,0.2,1.6,0.6c0.3,0.3,0.4,0.9,0.2,1.7l-1.5,7.6c-0.2,0.8-0.5,1.4-0.9,1.8
			c-0.4,0.3-1,0.5-1.8,0.5h-13c-1.3,0-2.3,0.3-3,0.8s-1.2,1.3-1.4,2.3l-2.9,15c-0.2,1-0.1,1.8,0.2,2.3c0.4,0.5,1.1,0.8,2.1,0.8h6.1
			l1.9-9.8c0.2-0.8,0.4-1.4,0.8-1.7c0.4-0.4,1.1-0.6,1.9-0.6h9.7c0.8,0,1.3,0.2,1.6,0.6c0.3,0.3,0.4,0.9,0.2,1.7l-3.8,19.4
			c-0.2,0.8-0.5,1.4-0.9,1.8C492.3,360,491.7,360.2,490.9,360.2z"/>
		<path class="st2" d="M512.5,360.2h-9.4c-0.8,0-1.3-0.2-1.7-0.5c-0.3-0.4-0.3-1-0.2-1.8l7.9-40.6c0.2-0.8,0.4-1.4,0.8-1.7
			c0.4-0.4,1.1-0.6,1.9-0.6h6.5c0.8,0,1.4,0.1,1.9,0.4s1,0.7,1.4,1.3l9.4,13.9l2.6-13.4c0.2-0.8,0.4-1.4,0.8-1.7
			c0.4-0.4,1.1-0.6,1.9-0.6h9.4c0.8,0,1.3,0.2,1.6,0.6c0.3,0.3,0.4,0.9,0.2,1.7l-7.9,40.6c-0.2,0.8-0.5,1.4-0.9,1.8
			c-0.4,0.3-1,0.5-1.8,0.5h-9.4c-0.8,0-1.3-0.2-1.7-0.5c-0.3-0.4-0.3-1-0.2-1.8l1.5-7.7l-8.2-13l-4,20.7c-0.2,0.8-0.5,1.4-0.9,1.8
			C513.9,360,513.3,360.2,512.5,360.2z"/>
		<path class="st2" d="M290.5,364.3h249c0.8,0,1.2,1.3,0.8,3l-1.2,6c-0.3,1.7-1.2,3-2,3h-249c-0.8,0-1.2-1.3-0.8-3l1.2-6
			C288.8,365.6,289.7,364.3,290.5,364.3z"/>
		<path class="st2" d="M303.2,299.2h249c0.8,0,1.2,1.3,0.8,3l-1.2,6c-0.3,1.7-1.2,3-2,3h-249c-0.8,0-1.2-1.3-0.8-3l1.2-6
			C301.5,300.5,302.4,299.2,303.2,299.2z"/>
	</g>
</g>
</svg>
